<?xml version="1.0" encoding="utf-8"?>
<!-- Generator: Adobe Illustrator 22.1.0, SVG Export Plug-In . SVG Version: 6.00 Build 0)  -->
<svg version="1.1" id="Capa_1" xmlns="http://www.w3.org/2000/svg" xmlns:xlink="http://www.w3.org/1999/xlink" x="0px" y="0px"
	 viewBox="0 0 252 56" style="enable-background:new 0 0 252 56;" xml:space="preserve">
<style type="text/css">
	.st0{clip-path:url(#SVGID_2_);fill:url(#SVGID_3_);}
</style>
<g>
	<defs>
		<path id="SVGID_1_" d="M52.6,14.4H57v1.9h-4.4v29.5c0,1.9-0.2,3.5-0.6,4.6c-0.4,1.2-0.9,2.1-1.5,2.8c-0.6,0.7-1.3,1.1-2.1,1.4
			c-0.8,0.2-1.7,0.4-2.6,0.4c-1.9,0-3.4-0.5-4.3-1.4c-0.9-0.9-1.4-2.2-1.4-3.9c0-0.9,0.2-1.7,0.6-2.5c0.4-0.8,1-1.5,1.6-2.1
			c0.7-0.6,1.4-1.2,2.2-1.7c0.8-0.5,1.7-0.9,2.5-1.3V10.3c0-3.1,0.7-5.5,2.2-7.1c1.5-1.6,3.4-2.4,5.7-2.4c1.1,0,2.1,0.2,3,0.5
			c0.9,0.3,1.7,0.8,2.4,1.5c0.7,0.7,1.2,1.5,1.6,2.5s0.6,2.2,0.6,3.6h-2.1c-0.2-1.4-0.6-2.6-1.2-3.4c-0.6-0.8-1.5-1.2-2.8-1.2
			c-0.9,0-1.6,0.2-2.1,0.6c-0.5,0.4-0.9,0.9-1.2,1.5c-0.3,0.6-0.5,1.4-0.6,2.4c-0.1,0.9-0.1,1.9-0.1,3V14.4z M44.8,52.2
			c1,0,1.7-0.6,2-1.7c0.3-1.1,0.4-2.7,0.4-4.6v-1.7c-1.6,0.8-2.9,1.7-3.7,2.6c-0.8,0.9-1.2,1.9-1.2,2.8c0,0.7,0.2,1.3,0.7,1.8
			C43.5,51.9,44.1,52.2,44.8,52.2z M77.1,21.2c0,2.5-1,4.6-3.1,6.3c-2.1,1.7-5,2.7-8.6,3.1c0.1,1.4,0.4,2.6,0.8,3.5
			c0.4,0.9,0.8,1.6,1.4,2.1c0.5,0.5,1.2,0.9,1.9,1.1c0.7,0.2,1.4,0.3,2.2,0.3c1.7,0,3.4-0.5,4.9-1.4c1.5-0.9,2.7-2.4,3.7-4.5h1.7
			c-0.5,1.3-1.1,2.6-1.9,3.8c-0.8,1.2-1.8,2.3-2.9,3.2c-1.1,0.9-2.3,1.7-3.6,2.2c-1.3,0.5-2.6,0.8-4,0.8c-1.3,0-2.5-0.2-3.7-0.7
			c-1.2-0.4-2.2-1.1-3.1-2.1c-0.9-1-1.6-2.3-2.2-3.9c-0.6-1.6-0.8-3.5-0.8-5.8c0-1.5,0.2-3.2,0.5-4.9c0.3-1.8,0.9-3.4,1.7-4.9
			c0.8-1.5,1.9-2.8,3.2-3.8c1.3-1,2.9-1.5,4.9-1.5c0.9,0,1.8,0.1,2.6,0.3c0.8,0.2,1.6,0.6,2.3,1.1c0.7,0.5,1.2,1.2,1.7,2.1
			C76.9,18.6,77.1,19.7,77.1,21.2z M65.3,28.5c2.6-0.4,4.6-1.3,6.1-2.7c1.5-1.4,2.2-3.1,2.2-5.2c0-1.4-0.2-2.4-0.7-2.9
			c-0.5-0.6-1.1-0.9-2-0.9c-0.9,0-1.8,0.4-2.5,1.1c-0.7,0.7-1.3,1.7-1.8,2.8c-0.5,1.1-0.8,2.4-1.1,3.8
			C65.4,25.8,65.3,27.2,65.3,28.5z M85.5,14.4V19c0.4-0.6,0.9-1.3,1.3-1.8c0.4-0.6,0.9-1.1,1.4-1.5c0.5-0.4,1.1-0.8,1.7-1.1
			c0.6-0.3,1.3-0.4,2.1-0.4c1.2,0,2.1,0.3,2.7,0.9c0.6,0.6,0.9,1.4,0.9,2.3c0,0.5-0.1,1-0.3,1.4c-0.2,0.4-0.4,0.6-0.6,0.9
			c-0.3,0.2-0.5,0.4-0.8,0.5c-0.3,0.1-0.5,0.1-0.8,0.1c-0.3,0-0.6-0.1-0.8-0.2c-0.2-0.1-0.4-0.3-0.6-0.5c-0.2-0.2-0.4-0.3-0.7-0.5
			c-0.3-0.1-0.6-0.2-1-0.2c-0.8,0-1.6,0.3-2.4,0.9c-0.8,0.6-1.4,1.2-2.1,1.8v19.9h-5.4V14.4H85.5z M103.7,14.4v3.7
			c0.9-1.7,1.9-2.8,3-3.3c1-0.5,2-0.7,3-0.7c0.9,0,1.8,0.1,2.5,0.4c0.7,0.3,1.3,0.6,1.8,1c0.5,0.4,0.9,0.9,1.3,1.5
			c0.3,0.6,0.6,1.2,0.8,1.9c0.5-1.1,1-1.9,1.6-2.6c0.5-0.6,1.1-1.1,1.6-1.5c0.5-0.3,1.1-0.6,1.6-0.6c0.5-0.1,1-0.1,1.4-0.1
			c1.6,0,2.9,0.3,3.9,0.9c1,0.6,1.7,1.4,2.2,2.4c0.5,1,0.8,2,1,3.1c0.2,1.1,0.2,2.2,0.2,3.3c0,0.6,0,1.4-0.1,2.1
			c0,0.8-0.1,1.6-0.1,2.4c0,0.8-0.1,1.6-0.1,2.4c0,0.8-0.1,1.6-0.1,2.2c0,0.3,0,0.7,0.1,1.2c0,0.5,0.1,1,0.3,1.5
			c0.1,0.5,0.4,0.9,0.7,1.3c0.3,0.4,0.8,0.6,1.4,0.6c0.8,0,1.6-0.5,2.2-1.4c0.7-0.9,1.2-2.4,1.7-4.5h2c-0.4,2.3-0.9,4.1-1.5,5.4
			c-0.6,1.3-1.3,2.3-1.9,3s-1.4,1.1-2.1,1.3c-0.7,0.2-1.3,0.3-1.9,0.3c-1.2,0-2.1-0.2-2.9-0.7c-0.8-0.5-1.4-1.1-1.9-1.8
			c-0.5-0.8-0.9-1.6-1.1-2.7c-0.2-1-0.4-2.1-0.4-3.1c0-0.3,0-0.9,0-1.8c0-0.9,0-1.8,0.1-2.8c0-1,0-2,0.1-2.9c0-0.9,0-1.5,0-1.9
			c0-1.2-0.1-2.1-0.3-2.9c-0.2-0.8-0.4-1.4-0.8-1.8c-0.3-0.4-0.7-0.7-1.1-0.9c-0.4-0.2-0.9-0.3-1.3-0.3c-1.1,0-2,0.5-2.7,1.4
			c-0.7,0.9-1.2,2.4-1.5,4.5v17.3H111V23.4c0-0.6,0-1.3-0.1-1.9c-0.1-0.6-0.2-1.2-0.4-1.7c-0.2-0.5-0.5-0.9-0.9-1.2
			c-0.4-0.3-0.9-0.4-1.6-0.4c-1.2,0-2,0.5-2.6,1.4c-0.6,1-1.1,2.4-1.7,4.5v17.3h-5.4V14.4H103.7z M155.7,14.4v18.4
			c0,0.4,0,0.8,0.1,1.4c0,0.5,0.1,1.1,0.3,1.6c0.2,0.5,0.4,1,0.7,1.4c0.3,0.4,0.8,0.6,1.4,0.6c1.8,0,3.1-2,3.9-5.9h2
			c-0.4,2.3-0.9,4.1-1.5,5.4c-0.6,1.3-1.3,2.3-1.9,3s-1.4,1.1-2.1,1.3c-0.7,0.2-1.4,0.3-1.9,0.3c-0.8,0-1.5-0.1-2.1-0.4
			c-0.6-0.3-1.1-0.7-1.5-1.1c-0.4-0.5-0.7-1-1-1.6c-0.3-0.6-0.5-1.3-0.6-1.9c-0.5,1.4-1.4,2.6-2.6,3.6c-1.2,1-2.7,1.5-4.4,1.5
			c-1.1,0-2.2-0.2-3.3-0.7c-1.1-0.4-2.1-1.1-3-2.1c-0.9-1-1.6-2.3-2.2-3.8c-0.6-1.6-0.8-3.5-0.8-5.8c0-1.7,0.2-3.4,0.6-5.2
			c0.4-1.8,1-3.4,1.8-4.9c0.8-1.5,1.9-2.7,3.2-3.7c1.3-1,2.9-1.5,4.7-1.5c0.4,0,0.9,0,1.4,0.1c0.5,0.1,1,0.2,1.4,0.5
			c0.5,0.2,0.9,0.5,1.3,0.9c0.4,0.4,0.7,0.8,1,1.4v-2.5H155.7z M145.6,37.7c0.5,0,1.1-0.2,1.7-0.5c0.6-0.3,1.1-0.7,1.5-1.2
			s0.8-1.1,1.1-1.9s0.4-1.5,0.4-2.3V19.4c-0.3-0.6-0.6-1.1-1.2-1.6c-0.5-0.5-1.2-0.7-2-0.7c-1.2,0-2.1,0.4-3,1.2
			c-0.8,0.8-1.5,1.8-2,2.9c-0.5,1.2-0.9,2.5-1.1,3.9c-0.2,1.4-0.4,2.7-0.4,4c0,3.1,0.4,5.3,1.3,6.7C142.8,37,144,37.7,145.6,37.7z
			 M182,14.4v18.4c0,0.4,0,0.8,0.1,1.4c0,0.5,0.1,1.1,0.3,1.6c0.2,0.5,0.4,1,0.7,1.4c0.3,0.4,0.8,0.6,1.4,0.6c1.8,0,3.1-2,3.9-5.9h2
			c-0.4,2.3-0.9,4.1-1.5,5.4c-0.6,1.3-1.3,2.3-1.9,3s-1.4,1.1-2.1,1.3c-0.7,0.2-1.4,0.3-1.9,0.3c-0.8,0-1.5-0.1-2.1-0.4
			c-0.6-0.3-1.1-0.7-1.5-1.1c-0.4-0.5-0.7-1-1-1.6c-0.3-0.6-0.5-1.3-0.6-1.9c-0.5,1.4-1.4,2.6-2.6,3.6c-1.2,1-2.7,1.5-4.4,1.5
			c-1.1,0-2.2-0.2-3.3-0.7c-1.1-0.4-2.1-1.1-3-2.1c-0.9-1-1.6-2.3-2.2-3.8c-0.6-1.6-0.8-3.5-0.8-5.8c0-1.7,0.2-3.4,0.6-5.2
			c0.4-1.8,1-3.4,1.8-4.9c0.8-1.5,1.9-2.7,3.2-3.7c1.3-1,2.9-1.5,4.7-1.5c0.4,0,0.9,0,1.4,0.1c0.5,0.1,1,0.2,1.4,0.5
			c0.5,0.2,0.9,0.5,1.3,0.9c0.4,0.4,0.7,0.8,1,1.4v-2.5H182z M171.9,37.7c0.5,0,1.1-0.2,1.7-0.5c0.6-0.3,1.1-0.7,1.5-1.2
			s0.8-1.1,1.1-1.9s0.4-1.5,0.4-2.3V19.4c-0.3-0.6-0.6-1.1-1.2-1.6c-0.5-0.5-1.2-0.7-2-0.7c-1.2,0-2.1,0.4-3,1.2
			c-0.8,0.8-1.5,1.8-2,2.9c-0.5,1.2-0.9,2.5-1.1,3.9c-0.2,1.4-0.4,2.7-0.4,4c0,3.1,0.4,5.3,1.3,6.7C169.1,37,170.3,37.7,171.9,37.7z
			 M193.7,3.6v19.6l9.3-8.8h5.3l-9,7.3h0.5c1.6,0,2.9,0.3,3.9,0.8c1,0.5,1.7,1.2,2.2,2.1c0.5,0.8,0.9,1.8,1,2.8
			c0.2,1,0.2,1.9,0.2,2.8c0,0.8,0,1.6-0.1,2.6c-0.1,1-0.1,1.7-0.1,2.2c0,0.3,0,0.6,0.1,1c0.1,0.3,0.2,0.6,0.3,0.9
			c0.2,0.3,0.4,0.5,0.8,0.6c0.3,0.2,0.8,0.2,1.4,0.2c0.3,0,0.7,0,1.1-0.1c0.5-0.1,0.8-0.2,1.1-0.4c0,0.1,0,0.3,0,0.4s0,0.2,0,0.4
			c0,0.8-0.1,1.4-0.4,1.9c-0.3,0.5-0.6,0.9-1.1,1.2c-0.4,0.3-0.9,0.5-1.4,0.5c-0.5,0.1-1,0.1-1.4,0.1c-1,0-1.9-0.2-2.7-0.5
			c-0.8-0.3-1.4-0.8-1.9-1.3s-0.8-1.2-1.1-1.9s-0.4-1.5-0.4-2.4c0-0.1,0-0.5,0-0.9s0-1,0-1.5c0-0.5,0-1.1,0-1.5s0-0.8,0-1
			c0-1.9-0.3-3.1-1-3.8s-1.5-1-2.4-1c-0.9,0-1.8,0.3-2.5,0.9c-0.7,0.6-1.4,1.7-1.9,3.2v11.5h-5.4V4.3L193.7,3.6z"/>
	</defs>
	<clipPath id="SVGID_2_">
		<use xlink:href="#SVGID_1_"  style="overflow:visible;"/>
	</clipPath>
	<linearGradient id="SVGID_3_" gradientUnits="userSpaceOnUse" x1="-11.2472" y1="24.4974" x2="263.2472" y2="24.4974">
		<stop  offset="0" style="stop-color:#0BD3AC"/>
		<stop  offset="0.7333" style="stop-color:#24DD80"/>
	</linearGradient>
	<rect x="-11.2" y="-52.7" class="st0" width="274.5" height="154.4"/>
</g>
</svg>
